<?xml version="1.0" standalone="no"?>
<!DOCTYPE svg PUBLIC "-//W3C//DTD SVG 20010904//EN"
 "http://www.w3.org/TR/2001/REC-SVG-20010904/DTD/svg10.dtd">
<svg version="1.0" xmlns="http://www.w3.org/2000/svg"
 width="512.000000pt" height="512.000000pt" viewBox="0 0 512.000000 512.000000"
 preserveAspectRatio="xMidYMid meet">
<metadata>
Created by potrace 1.14, written by Peter Selinger 2001-2017
</metadata>
<g transform="translate(0.000000,512.000000) scale(0.100000,-0.100000)"
fill="#000000" stroke="none">
<path d="M557 4226 c-54 -20 -104 -64 -135 -121 -16 -27 -17 -151 -19 -1455
-3 -1511 -5 -1445 42 -1554 25 -59 115 -142 192 -179 l68 -32 1835 -2 c1598
-2 1841 -1 1884 12 27 8 55 20 62 26 8 6 14 8 14 5 0 -16 90 57 127 101 40 50
65 99 82 168 7 26 11 516 11 1450 0 1353 -1 1412 -19 1450 -21 46 -71 99 -115
123 -29 16 -179 17 -2011 19 -1652 2 -1986 0 -2018 -11z m3263 -506 c-62 -56
-186 -169 -225 -205 -17 -16 -71 -66 -120 -110 -48 -44 -104 -96 -125 -115
-21 -19 -57 -53 -81 -75 -24 -22 -71 -65 -104 -95 -34 -30 -105 -95 -159 -145
-54 -49 -110 -101 -126 -115 -113 -104 -221 -202 -264 -242 -28 -26 -53 -48
-56 -48 -3 0 -30 23 -60 51 -101 94 -166 153 -260 239 -105 96 -110 101 -246
226 -55 50 -111 102 -125 115 -71 64 -195 177 -223 204 -18 17 -75 68 -126
115 -51 47 -105 96 -120 110 -15 14 -50 46 -78 72 -29 26 -52 49 -52 52 0 3
584 6 1297 6 l1297 0 -44 -40z m-2750 -439 c57 -53 131 -121 165 -152 124
-114 270 -249 326 -299 44 -41 210 -192 253 -233 l41 -37 -45 -41 c-39 -35
-156 -143 -265 -244 -141 -130 -221 -203 -239 -218 -11 -10 -70 -64 -131 -120
-110 -102 -201 -186 -263 -241 l-32 -30 0 893 0 893 43 -37 c23 -21 89 -81
147 -134z m3168 -1165 l-3 -444 -50 45 c-27 25 -77 71 -111 102 -33 31 -102
94 -153 141 -52 47 -111 101 -131 120 -94 87 -219 202 -237 218 -11 9 -62 55
-112 102 -51 47 -111 102 -134 122 l-40 37 35 33 c41 38 221 204 259 239 15
13 66 60 115 104 48 44 106 97 128 118 23 22 77 71 120 110 44 40 109 99 145
133 36 34 89 82 116 107 l50 45 3 -444 c1 -244 1 -644 0 -888z m-1963 59 c172
-159 201 -175 296 -171 85 4 109 18 235 134 28 26 62 58 77 71 l26 24 43 -38
c24 -21 68 -61 98 -89 30 -28 104 -96 165 -151 60 -55 119 -109 130 -120 12
-11 59 -54 104 -95 46 -41 98 -88 115 -105 53 -49 218 -200 261 -239 l40 -36
-1303 0 -1302 0 34 33 c38 37 195 180 235 215 14 13 68 62 119 109 51 48 102
94 112 103 11 9 48 44 83 76 35 32 105 97 156 144 51 47 119 109 150 137 31
29 58 53 61 53 3 0 32 -25 65 -55z"/>
</g>
</svg>
